<svg width="24" height="24" viewBox="0 0 24 24" fill="none" xmlns="http://www.w3.org/2000/svg">
<path d="M10.7144 13.3554L9.77519 12.8568C8.42476 12.1399 7.74954 11.7815 7.72711 11.2069C7.70468 10.6322 8.3499 10.2223 9.64033 9.40227L13.6853 6.83198C14.3259 6.42488 14.6462 6.22133 14.7876 6.35205C14.9289 6.48277 14.751 6.81799 14.3951 7.48843L13.0785 9.9685C12.968 10.1767 12.9127 10.2808 12.943 10.3798C12.9734 10.4788 13.0775 10.5341 13.2857 10.6446L14.2249 11.1432C15.5753 11.8601 16.2505 12.2185 16.2729 12.7931C16.2954 13.3677 15.6502 13.7777 14.3597 14.5977L10.3148 17.168C9.67413 17.5751 9.3538 17.7787 9.21247 17.6479C9.07113 17.5172 9.24908 17.182 9.605 16.5116L10.9216 14.0315C11.0321 13.8233 11.0874 13.7192 11.057 13.6202C11.0267 13.5212 10.9226 13.4659 10.7144 13.3554Z" fill="#2EFFD9"/>
<circle cx="12" cy="12" r="9" stroke="#2EFFD9" stroke-width="2"/>
</svg>
